<mxfile host="app.diagrams.net" modified="2023-04-06T18:32:51.458Z" agent="Mozilla/5.0 (Windows NT 10.0; Win64; x64) AppleWebKit/537.36 (KHTML, like Gecko) Chrome/112.0.0.0 Safari/537.36" etag="GvZoekffG9erPSlOR5XA" version="21.1.4" type="device">
  <diagram name="Страница 1" id="Jw_WAsDO1xkft_p4qxD0">
    <mxGraphModel dx="1600" dy="718" grid="1" gridSize="10" guides="1" tooltips="1" connect="1" arrows="1" fold="1" page="1" pageScale="1" pageWidth="827" pageHeight="1169" math="0" shadow="0">
      <root>
        <mxCell id="0" />
        <mxCell id="1" parent="0" />
        <mxCell id="mUJ7a0KyAKg2utw57dHk-2" value="StrategyFacade.ts" style="rounded=1;whiteSpace=wrap;html=1;fillColor=#fff2cc;strokeColor=#d6b656;" parent="1" vertex="1">
          <mxGeometry x="40" y="370" width="120" height="40" as="geometry" />
        </mxCell>
        <mxCell id="mUJ7a0KyAKg2utw57dHk-55" style="edgeStyle=orthogonalEdgeStyle;rounded=1;orthogonalLoop=1;jettySize=auto;html=1;entryX=1;entryY=0.5;entryDx=0;entryDy=0;fillColor=#d5e8d4;strokeColor=#82b366;" parent="1" source="mUJ7a0KyAKg2utw57dHk-3" target="mUJ7a0KyAKg2utw57dHk-2" edge="1">
          <mxGeometry relative="1" as="geometry">
            <Array as="points">
              <mxPoint x="230" y="270" />
              <mxPoint x="230" y="390" />
            </Array>
          </mxGeometry>
        </mxCell>
        <mxCell id="mUJ7a0KyAKg2utw57dHk-3" value="CloudStorageStrategyFactory.ts" style="rounded=1;whiteSpace=wrap;html=1;fillColor=#d5e8d4;strokeColor=#82b366;" parent="1" vertex="1">
          <mxGeometry x="250" y="250" width="190" height="40" as="geometry" />
        </mxCell>
        <mxCell id="mUJ7a0KyAKg2utw57dHk-54" style="edgeStyle=orthogonalEdgeStyle;rounded=1;orthogonalLoop=1;jettySize=auto;html=1;entryX=1;entryY=0.5;entryDx=0;entryDy=0;fillColor=#d5e8d4;strokeColor=#82b366;" parent="1" source="mUJ7a0KyAKg2utw57dHk-11" target="mUJ7a0KyAKg2utw57dHk-2" edge="1">
          <mxGeometry relative="1" as="geometry">
            <Array as="points">
              <mxPoint x="230" y="90" />
              <mxPoint x="230" y="390" />
            </Array>
          </mxGeometry>
        </mxCell>
        <mxCell id="mUJ7a0KyAKg2utw57dHk-11" value="AuthorizationStrategyFactory.ts" style="rounded=1;whiteSpace=wrap;html=1;fillColor=#d5e8d4;strokeColor=#82b366;" parent="1" vertex="1">
          <mxGeometry x="260" y="70" width="190" height="40" as="geometry" />
        </mxCell>
        <mxCell id="mUJ7a0KyAKg2utw57dHk-56" style="edgeStyle=orthogonalEdgeStyle;rounded=1;orthogonalLoop=1;jettySize=auto;html=1;entryX=1;entryY=0.5;entryDx=0;entryDy=0;fillColor=#d5e8d4;strokeColor=#82b366;" parent="1" source="mUJ7a0KyAKg2utw57dHk-13" target="mUJ7a0KyAKg2utw57dHk-2" edge="1">
          <mxGeometry relative="1" as="geometry">
            <Array as="points">
              <mxPoint x="230" y="450" />
              <mxPoint x="230" y="390" />
            </Array>
          </mxGeometry>
        </mxCell>
        <mxCell id="mUJ7a0KyAKg2utw57dHk-13" value="PaymentStrategyFactory.ts" style="rounded=1;whiteSpace=wrap;html=1;fillColor=#d5e8d4;strokeColor=#82b366;" parent="1" vertex="1">
          <mxGeometry x="250" y="430" width="190" height="40" as="geometry" />
        </mxCell>
        <mxCell id="mUJ7a0KyAKg2utw57dHk-57" style="edgeStyle=orthogonalEdgeStyle;rounded=1;orthogonalLoop=1;jettySize=auto;html=1;entryX=1;entryY=0.5;entryDx=0;entryDy=0;fillColor=#d5e8d4;strokeColor=#82b366;" parent="1" source="mUJ7a0KyAKg2utw57dHk-14" target="mUJ7a0KyAKg2utw57dHk-2" edge="1">
          <mxGeometry relative="1" as="geometry">
            <Array as="points">
              <mxPoint x="230" y="600" />
              <mxPoint x="230" y="390" />
            </Array>
          </mxGeometry>
        </mxCell>
        <mxCell id="mUJ7a0KyAKg2utw57dHk-14" value="AuthorizationFactory.ts" style="rounded=1;whiteSpace=wrap;html=1;fillColor=#d5e8d4;strokeColor=#82b366;" parent="1" vertex="1">
          <mxGeometry x="250" y="580" width="190" height="40" as="geometry" />
        </mxCell>
        <mxCell id="mUJ7a0KyAKg2utw57dHk-15" value="FacebookAuthorizationStrategy.ts" style="rounded=1;whiteSpace=wrap;html=1;fillColor=#d5e8d4;strokeColor=#82b366;" parent="1" vertex="1">
          <mxGeometry x="540" y="70" width="240" height="40" as="geometry" />
        </mxCell>
        <mxCell id="mUJ7a0KyAKg2utw57dHk-16" value="GitHubAuthorizationStrategy.ts" style="rounded=1;whiteSpace=wrap;html=1;fillColor=#d5e8d4;strokeColor=#82b366;" parent="1" vertex="1">
          <mxGeometry x="540" y="10" width="240" height="40" as="geometry" />
        </mxCell>
        <mxCell id="mUJ7a0KyAKg2utw57dHk-38" style="edgeStyle=orthogonalEdgeStyle;rounded=1;orthogonalLoop=1;jettySize=auto;html=1;entryX=1;entryY=0.5;entryDx=0;entryDy=0;fillColor=#dae8fc;strokeColor=#6c8ebf;" parent="1" target="mUJ7a0KyAKg2utw57dHk-11" edge="1">
          <mxGeometry relative="1" as="geometry">
            <mxPoint x="539.9999999999998" y="150.0344827586207" as="sourcePoint" />
            <Array as="points">
              <mxPoint x="520" y="150" />
              <mxPoint x="520" y="90" />
            </Array>
          </mxGeometry>
        </mxCell>
        <mxCell id="mUJ7a0KyAKg2utw57dHk-18" value="{authorization-strategy-name}Strategy.ts" style="rounded=1;whiteSpace=wrap;html=1;fillColor=#dae8fc;strokeColor=#6c8ebf;" parent="1" vertex="1">
          <mxGeometry x="540" y="130" width="240" height="40" as="geometry" />
        </mxCell>
        <mxCell id="mUJ7a0KyAKg2utw57dHk-19" value="MicrosoftCloudStorageStrategy.ts" style="rounded=1;whiteSpace=wrap;html=1;fillColor=#dae8fc;strokeColor=#6c8ebf;" parent="1" vertex="1">
          <mxGeometry x="540" y="250" width="240" height="40" as="geometry" />
        </mxCell>
        <mxCell id="mUJ7a0KyAKg2utw57dHk-20" value="S3CloudStorageStrategy.ts" style="rounded=1;whiteSpace=wrap;html=1;fillColor=#dae8fc;strokeColor=#6c8ebf;" parent="1" vertex="1">
          <mxGeometry x="540" y="190" width="240" height="40" as="geometry" />
        </mxCell>
        <mxCell id="mUJ7a0KyAKg2utw57dHk-22" value="{cloud-storage-strategy-name}Strategy.ts" style="rounded=1;whiteSpace=wrap;html=1;fillColor=#dae8fc;strokeColor=#6c8ebf;" parent="1" vertex="1">
          <mxGeometry x="540" y="310" width="240" height="40" as="geometry" />
        </mxCell>
        <mxCell id="mUJ7a0KyAKg2utw57dHk-23" value="GitHubAuthorizationStrategy.ts" style="rounded=1;whiteSpace=wrap;html=1;fillColor=#d5e8d4;strokeColor=#82b366;" parent="1" vertex="1">
          <mxGeometry x="540" y="10" width="240" height="40" as="geometry" />
        </mxCell>
        <mxCell id="mUJ7a0KyAKg2utw57dHk-24" value="FacebookAuthorizationStrategy.ts" style="rounded=1;whiteSpace=wrap;html=1;fillColor=#d5e8d4;strokeColor=#82b366;" parent="1" vertex="1">
          <mxGeometry x="540" y="70" width="240" height="40" as="geometry" />
        </mxCell>
        <mxCell id="mUJ7a0KyAKg2utw57dHk-36" style="edgeStyle=orthogonalEdgeStyle;rounded=1;orthogonalLoop=1;jettySize=auto;html=1;entryX=1;entryY=0.5;entryDx=0;entryDy=0;fillColor=#dae8fc;strokeColor=#6c8ebf;" parent="1" source="mUJ7a0KyAKg2utw57dHk-25" target="mUJ7a0KyAKg2utw57dHk-11" edge="1">
          <mxGeometry relative="1" as="geometry">
            <Array as="points">
              <mxPoint x="520" y="30" />
              <mxPoint x="520" y="90" />
            </Array>
          </mxGeometry>
        </mxCell>
        <mxCell id="mUJ7a0KyAKg2utw57dHk-25" value="GitHubAuthorizationStrategy.ts" style="rounded=1;whiteSpace=wrap;html=1;fillColor=#dae8fc;strokeColor=#6c8ebf;" parent="1" vertex="1">
          <mxGeometry x="540" y="10" width="240" height="40" as="geometry" />
        </mxCell>
        <mxCell id="mUJ7a0KyAKg2utw57dHk-37" style="edgeStyle=orthogonalEdgeStyle;rounded=1;orthogonalLoop=1;jettySize=auto;html=1;entryX=1;entryY=0.5;entryDx=0;entryDy=0;fillColor=#dae8fc;strokeColor=#6c8ebf;" parent="1" source="mUJ7a0KyAKg2utw57dHk-26" target="mUJ7a0KyAKg2utw57dHk-11" edge="1">
          <mxGeometry relative="1" as="geometry">
            <Array as="points">
              <mxPoint x="490" y="90" />
              <mxPoint x="490" y="90" />
            </Array>
          </mxGeometry>
        </mxCell>
        <mxCell id="mUJ7a0KyAKg2utw57dHk-40" value="inject" style="edgeLabel;html=1;align=center;verticalAlign=middle;resizable=0;points=[];labelBackgroundColor=#CDA2BE;fontSize=12;" parent="mUJ7a0KyAKg2utw57dHk-37" vertex="1" connectable="0">
          <mxGeometry x="0.284" relative="1" as="geometry">
            <mxPoint x="-2" as="offset" />
          </mxGeometry>
        </mxCell>
        <mxCell id="mUJ7a0KyAKg2utw57dHk-26" value="FacebookAuthorizationStrategy.ts" style="rounded=1;whiteSpace=wrap;html=1;fillColor=#dae8fc;strokeColor=#6c8ebf;" parent="1" vertex="1">
          <mxGeometry x="540" y="70" width="240" height="40" as="geometry" />
        </mxCell>
        <mxCell id="mUJ7a0KyAKg2utw57dHk-27" value="Privat24PaymentStrategy.ts" style="rounded=1;whiteSpace=wrap;html=1;fillColor=#dae8fc;strokeColor=#6c8ebf;" parent="1" vertex="1">
          <mxGeometry x="540" y="430" width="240" height="40" as="geometry" />
        </mxCell>
        <mxCell id="mUJ7a0KyAKg2utw57dHk-28" value="StripePaymentStrategy.ts" style="rounded=1;whiteSpace=wrap;html=1;fillColor=#dae8fc;strokeColor=#6c8ebf;" parent="1" vertex="1">
          <mxGeometry x="540" y="370" width="240" height="40" as="geometry" />
        </mxCell>
        <mxCell id="mUJ7a0KyAKg2utw57dHk-30" value="{payment-strategy-name}Strategy.ts" style="rounded=1;whiteSpace=wrap;html=1;fillColor=#dae8fc;strokeColor=#6c8ebf;" parent="1" vertex="1">
          <mxGeometry x="540" y="494.51" width="240" height="40" as="geometry" />
        </mxCell>
        <mxCell id="mUJ7a0KyAKg2utw57dHk-52" style="edgeStyle=orthogonalEdgeStyle;rounded=1;orthogonalLoop=1;jettySize=auto;html=1;entryX=1;entryY=0.5;entryDx=0;entryDy=0;fillColor=#dae8fc;strokeColor=#6c8ebf;" parent="1" source="mUJ7a0KyAKg2utw57dHk-31" target="mUJ7a0KyAKg2utw57dHk-14" edge="1">
          <mxGeometry relative="1" as="geometry">
            <mxPoint x="450" y="610" as="targetPoint" />
            <Array as="points">
              <mxPoint x="520" y="630" />
              <mxPoint x="520" y="600" />
            </Array>
          </mxGeometry>
        </mxCell>
        <mxCell id="mUJ7a0KyAKg2utw57dHk-31" value="MicrosoftCloudStorageStrategy.ts" style="rounded=1;whiteSpace=wrap;html=1;fillColor=#dae8fc;strokeColor=#6c8ebf;" parent="1" vertex="1">
          <mxGeometry x="540" y="610" width="240" height="40" as="geometry" />
        </mxCell>
        <mxCell id="mUJ7a0KyAKg2utw57dHk-51" style="edgeStyle=orthogonalEdgeStyle;rounded=1;orthogonalLoop=1;jettySize=auto;html=1;entryX=1;entryY=0.5;entryDx=0;entryDy=0;fillColor=#dae8fc;strokeColor=#6c8ebf;" parent="1" source="mUJ7a0KyAKg2utw57dHk-32" target="mUJ7a0KyAKg2utw57dHk-14" edge="1">
          <mxGeometry relative="1" as="geometry">
            <Array as="points">
              <mxPoint x="520" y="570" />
              <mxPoint x="520" y="600" />
            </Array>
          </mxGeometry>
        </mxCell>
        <mxCell id="mUJ7a0KyAKg2utw57dHk-32" value="S3CloudStorageStrategy.ts" style="rounded=1;whiteSpace=wrap;html=1;fillColor=#dae8fc;strokeColor=#6c8ebf;" parent="1" vertex="1">
          <mxGeometry x="540" y="550" width="240" height="40" as="geometry" />
        </mxCell>
        <mxCell id="mUJ7a0KyAKg2utw57dHk-41" style="edgeStyle=orthogonalEdgeStyle;rounded=1;orthogonalLoop=1;jettySize=auto;html=1;entryX=1;entryY=0.5;entryDx=0;entryDy=0;fillColor=#dae8fc;strokeColor=#6c8ebf;" parent="1" target="mUJ7a0KyAKg2utw57dHk-3" edge="1">
          <mxGeometry relative="1" as="geometry">
            <mxPoint x="540" y="330" as="sourcePoint" />
            <mxPoint x="440" y="300" as="targetPoint" />
            <Array as="points">
              <mxPoint x="520" y="330" />
              <mxPoint x="520" y="270" />
            </Array>
          </mxGeometry>
        </mxCell>
        <mxCell id="mUJ7a0KyAKg2utw57dHk-43" style="edgeStyle=orthogonalEdgeStyle;rounded=1;orthogonalLoop=1;jettySize=auto;html=1;entryX=1;entryY=0.5;entryDx=0;entryDy=0;fillColor=#dae8fc;strokeColor=#6c8ebf;" parent="1" target="mUJ7a0KyAKg2utw57dHk-3" edge="1">
          <mxGeometry relative="1" as="geometry">
            <mxPoint x="540" y="210" as="sourcePoint" />
            <mxPoint x="440" y="300" as="targetPoint" />
            <Array as="points">
              <mxPoint x="520" y="210" />
              <mxPoint x="520" y="270" />
            </Array>
          </mxGeometry>
        </mxCell>
        <mxCell id="mUJ7a0KyAKg2utw57dHk-44" style="edgeStyle=orthogonalEdgeStyle;rounded=1;orthogonalLoop=1;jettySize=auto;html=1;entryX=1;entryY=0.5;entryDx=0;entryDy=0;fillColor=#dae8fc;strokeColor=#6c8ebf;exitX=0;exitY=0.5;exitDx=0;exitDy=0;" parent="1" source="mUJ7a0KyAKg2utw57dHk-19" edge="1">
          <mxGeometry relative="1" as="geometry">
            <mxPoint x="540" y="240" as="sourcePoint" />
            <mxPoint x="440" y="270.03" as="targetPoint" />
            <Array as="points">
              <mxPoint x="530" y="270" />
              <mxPoint x="530" y="270" />
            </Array>
          </mxGeometry>
        </mxCell>
        <mxCell id="mUJ7a0KyAKg2utw57dHk-45" value="inject" style="edgeLabel;html=1;align=center;verticalAlign=middle;resizable=0;points=[];labelBackgroundColor=#CDA2BE;fontSize=12;" parent="mUJ7a0KyAKg2utw57dHk-44" vertex="1" connectable="0">
          <mxGeometry x="0.284" relative="1" as="geometry">
            <mxPoint x="4" as="offset" />
          </mxGeometry>
        </mxCell>
        <mxCell id="mUJ7a0KyAKg2utw57dHk-46" style="edgeStyle=orthogonalEdgeStyle;rounded=1;orthogonalLoop=1;jettySize=auto;html=1;entryX=1;entryY=0.5;entryDx=0;entryDy=0;fillColor=#dae8fc;strokeColor=#6c8ebf;" parent="1" target="mUJ7a0KyAKg2utw57dHk-13" edge="1">
          <mxGeometry relative="1" as="geometry">
            <mxPoint x="540" y="514.5" as="sourcePoint" />
            <mxPoint x="440" y="484.5" as="targetPoint" />
            <Array as="points">
              <mxPoint x="520" y="515" />
              <mxPoint x="520" y="450" />
            </Array>
          </mxGeometry>
        </mxCell>
        <mxCell id="mUJ7a0KyAKg2utw57dHk-48" style="edgeStyle=orthogonalEdgeStyle;rounded=1;orthogonalLoop=1;jettySize=auto;html=1;entryX=1;entryY=0.5;entryDx=0;entryDy=0;fillColor=#dae8fc;strokeColor=#6c8ebf;" parent="1" target="mUJ7a0KyAKg2utw57dHk-13" edge="1">
          <mxGeometry relative="1" as="geometry">
            <mxPoint x="540" y="394.5" as="sourcePoint" />
            <mxPoint x="440" y="484.5" as="targetPoint" />
            <Array as="points">
              <mxPoint x="520" y="395" />
              <mxPoint x="520" y="450" />
            </Array>
          </mxGeometry>
        </mxCell>
        <mxCell id="mUJ7a0KyAKg2utw57dHk-49" style="edgeStyle=orthogonalEdgeStyle;rounded=1;orthogonalLoop=1;jettySize=auto;html=1;fillColor=#dae8fc;strokeColor=#6c8ebf;exitX=0;exitY=0.5;exitDx=0;exitDy=0;" parent="1" source="mUJ7a0KyAKg2utw57dHk-27" edge="1">
          <mxGeometry relative="1" as="geometry">
            <mxPoint x="540" y="454.5" as="sourcePoint" />
            <mxPoint x="440" y="450" as="targetPoint" />
            <Array as="points">
              <mxPoint x="530" y="450" />
              <mxPoint x="530" y="450" />
            </Array>
          </mxGeometry>
        </mxCell>
        <mxCell id="mUJ7a0KyAKg2utw57dHk-50" value="inject" style="edgeLabel;html=1;align=center;verticalAlign=middle;resizable=0;points=[];labelBackgroundColor=#CDA2BE;fontSize=12;" parent="mUJ7a0KyAKg2utw57dHk-49" vertex="1" connectable="0">
          <mxGeometry x="0.284" relative="1" as="geometry">
            <mxPoint x="4" as="offset" />
          </mxGeometry>
        </mxCell>
        <mxCell id="mUJ7a0KyAKg2utw57dHk-58" value="inject" style="edgeLabel;html=1;align=center;verticalAlign=middle;resizable=0;points=[];labelBackgroundColor=#CDA2BE;fontSize=12;" parent="1" vertex="1" connectable="0">
          <mxGeometry x="480.00004365399286" y="600.0014249583161" as="geometry" />
        </mxCell>
      </root>
    </mxGraphModel>
  </diagram>
</mxfile>
